<svg width="800" height="1200" xmlns="http://www.w3.org/2000/svg">
  <!-- Background -->
  <rect width="800" height="1200" fill="#f8f9fa"/>
  
  <!-- Header -->
  <rect x="0" y="0" width="800" height="80" fill="#343a40"/>
  <text x="50" y="50" font-family="Arial" font-size="24" fill="white">QIO COFFEE</text>
  
  <!-- Navigation -->
  <text x="500" y="50" font-family="Arial" font-size="16" fill="white">Beranda</text>
  <text x="580" y="50" font-family="Arial" font-size="16" fill="white">Menu</text>
  <text x="650" y="50" font-family="Arial" font-size="16" fill="white">Lokasi</text>
  <text x="720" y="50" font-family="Arial" font-size="16" fill="white">Login</text>
  
  <!-- Hero Section -->
  <rect x="0" y="80" width="800" height="400" fill="#6c757d"/>
  <text x="400" y="200" font-family="Arial" font-size="36" fill="white" text-anchor="middle">QIO COFFEE</text>
  <text x="400" y="250" font-family="Arial" font-size="20" fill="white" text-anchor="middle">Kopi Berkualitas dengan Suasana yang Nyaman</text>
  <rect x="300" y="300" width="200" height="50" rx="25" fill="#28a745"/>
  <text x="400" y="335" font-family="Arial" font-size="18" fill="white" text-anchor="middle">Lihat Menu</text>
  
  <!-- About Section -->
  <rect x="50" y="530" width="700" height="200" fill="white" rx="10"/>
  <text x="400" y="570" font-family="Arial" font-size="24" fill="#343a40" text-anchor="middle">Tentang Kami</text>
  <text x="400" y="610" font-family="Arial" font-size="16" fill="#6c757d" text-anchor="middle" width="600">QIO Coffee adalah kedai kopi yang menyajikan berbagai jenis kopi</text>
  <text x="400" y="640" font-family="Arial" font-size="16" fill="#6c757d" text-anchor="middle" width="600">berkualitas tinggi dengan suasana yang nyaman untuk bersantai</text>
  <text x="400" y="670" font-family="Arial" font-size="16" fill="#6c757d" text-anchor="middle" width="600">atau bekerja. Kami berkomitmen untuk memberikan pengalaman</text>
  <text x="400" y="700" font-family="Arial" font-size="16" fill="#6c757d" text-anchor="middle" width="600">terbaik bagi setiap pelanggan kami.</text>
  
  <!-- Menu Section -->
  <text x="400" y="780" font-family="Arial" font-size="24" fill="#343a40" text-anchor="middle">Menu Kami</text>
  
  <!-- Menu Items (Grid) -->
  <rect x="50" y="820" width="220" height="280" fill="white" rx="10"/>
  <rect x="60" y="830" width="200" height="150" fill="#dee2e6" rx="5"/>
  <text x="160" y="1010" font-family="Arial" font-size="18" fill="#343a40" text-anchor="middle">Espresso</text>
  <text x="160" y="1040" font-family="Arial" font-size="16" fill="#dc3545" text-anchor="middle">Rp 20.000</text>
  
  <rect x="290" y="820" width="220" height="280" fill="white" rx="10"/>
  <rect x="300" y="830" width="200" height="150" fill="#dee2e6" rx="5"/>
  <text x="400" y="1010" font-family="Arial" font-size="18" fill="#343a40" text-anchor="middle">Cappuccino</text>
  <text x="400" y="1040" font-family="Arial" font-size="16" fill="#dc3545" text-anchor="middle">Rp 25.000</text>
  
  <rect x="530" y="820" width="220" height="280" fill="white" rx="10"/>
  <rect x="540" y="830" width="200" height="150" fill="#dee2e6" rx="5"/>
  <text x="640" y="1010" font-family="Arial" font-size="18" fill="#343a40" text-anchor="middle">Latte</text>
  <text x="640" y="1040" font-family="Arial" font-size="16" fill="#dc3545" text-anchor="middle">Rp 28.000</text>
  
  <!-- Footer -->
  <rect x="0" y="1150" width="800" height="50" fill="#343a40"/>
  <text x="400" y="1180" font-family="Arial" font-size="14" fill="white" text-anchor="middle">© 2023 QIO Coffee. Jl. Contoh No. 123, Medan | Buka: 08.00 - 22.00 WIB</text>
</svg>