<svg width="1200" height="800" xmlns="http://www.w3.org/2000/svg">
  <!-- Background -->
  <rect width="1200" height="800" fill="#f8f9fa"/>
  
  <!-- Header -->
  <rect x="0" y="0" width="1200" height="60" fill="#343a40"/>
  <text x="30" y="38" font-family="Arial" font-size="20" fill="white">QIO COFFEE - Laporan</text>
  
  <!-- Navigation -->
  <text x="800" y="38" font-family="Arial" font-size="16" fill="white">Dashboard</text>
  <text x="900" y="38" font-family="Arial" font-size="16" fill="white">Produk</text>
  <text x="980" y="38" font-family="Arial" font-size="16" fill="white">Laporan</text>
  <text x="1070" y="38" font-family="Arial" font-size="16" fill="white">Logout</text>
  
  <!-- Main Content Area -->
  <rect x="0" y="60" width="1200" height="740" fill="#f8f9fa"/>
  
  <!-- Page Title -->
  <text x="50" y="100" font-family="Arial" font-size="24" fill="#212529">Laporan Penjualan</text>
  
  <!-- Date Filter -->
  <text x="50" y="140" font-family="Arial" font-size="16" fill="#212529">Periode:</text>
  <rect x="130" y="125" width="150" height="30" fill="white" stroke="#ced4da" stroke-width="1" rx="3"/>
  <text x="150" y="145" font-family="Arial" font-size="14" fill="#212529">01/01/2023</text>
  <text x="290" y="145" font-family="Arial" font-size="14" fill="#212529">-</text>
  <rect x="310" y="125" width="150" height="30" fill="white" stroke="#ced4da" stroke-width="1" rx="3"/>
  <text x="330" y="145" font-family="Arial" font-size="14" fill="#212529">31/01/2023</text>
  <rect x="480" y="125" width="100" height="30" fill="#007bff" rx="3"/>
  <text x="530" y="145" font-family="Arial" font-size="14" fill="white" text-anchor="middle">Filter</text>
  
  <!-- Summary Cards -->
  <rect x="50" y="180" width="250" height="120" fill="white" rx="5" stroke="#dee2e6" stroke-width="1"/>
  <text x="70" y="210" font-family="Arial" font-size="16" fill="#6c757d">Total Penjualan</text>
  <text x="70" y="250" font-family="Arial" font-size="24" font-weight="bold" fill="#212529">Rp 5.250.000</text>
  <text x="70" y="280" font-family="Arial" font-size="14" fill="#28a745">↑ 15% dari bulan lalu</text>
  
  <rect x="320" y="180" width="250" height="120" fill="white" rx="5" stroke="#dee2e6" stroke-width="1"/>
  <text x="340" y="210" font-family="Arial" font-size="16" fill="#6c757d">Jumlah Transaksi</text>
  <text x="340" y="250" font-family="Arial" font-size="24" font-weight="bold" fill="#212529">210</text>
  <text x="340" y="280" font-family="Arial" font-size="14" fill="#28a745">↑ 8% dari bulan lalu</text>
  
  <rect x="590" y="180" width="250" height="120" fill="white" rx="5" stroke="#dee2e6" stroke-width="1"/>
  <text x="610" y="210" font-family="Arial" font-size="16" fill="#6c757d">Rata-rata per Transaksi</text>
  <text x="610" y="250" font-family="Arial" font-size="24" font-weight="bold" fill="#212529">Rp 25.000</text>
  <text x="610" y="280" font-family="Arial" font-size="14" fill="#28a745">↑ 5% dari bulan lalu</text>
  
  <rect x="860" y="180" width="250" height="120" fill="white" rx="5" stroke="#dee2e6" stroke-width="1"/>
  <text x="880" y="210" font-family="Arial" font-size="16" fill="#6c757d">Produk Terjual</text>
  <text x="880" y="250" font-family="Arial" font-size="24" font-weight="bold" fill="#212529">420</text>
  <text x="880" y="280" font-family="Arial" font-size="14" fill="#28a745">↑ 12% dari bulan lalu</text>
  
  <!-- Sales Chart -->
  <rect x="50" y="320" width="700" height="350" fill="white" rx="5" stroke="#dee2e6" stroke-width="1"/>
  <text x="70" y="350" font-family="Arial" font-size="18" fill="#212529">Grafik Penjualan Harian</text>
  
  <!-- Simplified Chart -->
  <line x1="100" y1="600" x2="700" y2="600" stroke="#dee2e6" stroke-width="1"/>
  <line x1="100" y1="400" x2="100" y2="600" stroke="#dee2e6" stroke-width="1"/>
  
  <!-- Chart Bars (simplified) -->
  <rect x="130" y="550" width="20" height="50" fill="#007bff" rx="2"/>
  <rect x="160" y="530" width="20" height="70" fill="#007bff" rx="2"/>
  <rect x="190" y="520" width="20" height="80" fill="#007bff" rx="2"/>
  <rect x="220" y="500" width="20" height="100" fill="#007bff" rx="2"/>
  <rect x="250" y="480" width="20" height="120" fill="#007bff" rx="2"/>
  <rect x="280" y="510" width="20" height="90" fill="#007bff" rx="2"/>
  <rect x="310" y="530" width="20" height="70" fill="#007bff" rx="2"/>
  <rect x="340" y="540" width="20" height="60" fill="#007bff" rx="2"/>
  <rect x="370" y="520" width="20" height="80" fill="#007bff" rx="2"/>
  <rect x="400" y="490" width="20" height="110" fill="#007bff" rx="2"/>
  <rect x="430" y="470" width="20" height="130" fill="#007bff" rx="2"/>
  <rect x="460" y="450" width="20" height="150" fill="#007bff" rx="2"/>
  <rect x="490" y="480" width="20" height="120" fill="#007bff" rx="2"/>
  <rect x="520" y="500" width="20" height="100" fill="#007bff" rx="2"/>
  <rect x="550" y="520" width="20" height="80" fill="#007bff" rx="2"/>
  <rect x="580" y="540" width="20" height="60" fill="#007bff" rx="2"/>
  <rect x="610" y="560" width="20" height="40" fill="#007bff" rx="2"/>
  <rect x="640" y="530" width="20" height="70" fill="#007bff" rx="2"/>
  <rect x="670" y="510" width="20" height="90" fill="#007bff" rx="2"/>
  
  <!-- Top Products Table -->
  <rect x="770" y="320" width="380" height="350" fill="white" rx="5" stroke="#dee2e6" stroke-width="1"/>
  <text x="790" y="350" font-family="Arial" font-size="18" fill="#212529">Produk Terlaris</text>
  
  <!-- Table Header -->
  <line x1="790" y1="370" x2="1130" y2="370" stroke="#dee2e6" stroke-width="1"/>
  <text x="810" y="390" font-family="Arial" font-size="14" font-weight="bold" fill="#212529">Produk</text>
  <text x="1000" y="390" font-family="Arial" font-size="14" font-weight="bold" fill="#212529">Terjual</text>
  <text x="1080" y="390" font-family="Arial" font-size="14" font-weight="bold" fill="#212529">Total</text>
  <line x1="790" y1="400" x2="1130" y2="400" stroke="#dee2e6" stroke-width="1"/>
  
  <!-- Table Rows -->
  <text x="810" y="430" font-family="Arial" font-size="14" fill="#212529">Cappuccino</text>
  <text x="1000" y="430" font-family="Arial" font-size="14" fill="#212529">85</text>
  <text x="1080" y="430" font-family="Arial" font-size="14" fill="#212529">Rp 2.125.000</text>
  <line x1="790" y1="440" x2="1130" y2="440" stroke="#dee2e6" stroke-width="1"/>
  
  <text x="810" y="470" font-family="Arial" font-size="14" fill="#212529">Latte</text>
  <text x="1000" y="470" font-family="Arial" font-size="14" fill="#212529">72</text>
  <text x="1080" y="470" font-family="Arial" font-size="14" fill="#212529">Rp 2.016.000</text>
  <line x1="790" y1="480" x2="1130" y2="480" stroke="#dee2e6" stroke-width="1"/>
  
  <text x="810" y="510" font-family="Arial" font-size="14" fill="#212529">Espresso</text>
  <text x="1000" y="510" font-family="Arial" font-size="14" fill="#212529">65</text>
  <text x="1080" y="510" font-family="Arial" font-size="14" fill="#212529">Rp 1.300.000</text>
  <line x1="790" y1="520" x2="1130" y2="520" stroke="#dee2e6" stroke-width="1"/>
  
  <text x="810" y="550" font-family="Arial" font-size="14" fill="#212529">Americano</text>
  <text x="1000" y="550" font-family="Arial" font-size="14" fill="#212529">58</text>
  <text x="1080" y="550" font-family="Arial" font-size="14" fill="#212529">Rp 1.276.000</text>
  <line x1="790" y1="560" x2="1130" y2="560" stroke="#dee2e6" stroke-width="1"/>
  
  <text x="810" y="590" font-family="Arial" font-size="14" fill="#212529">Mocha</text>
  <text x="1000" y="590" font-family="Arial" font-size="14" fill="#212529">45</text>
  <text x="1080" y="590" font-family="Arial" font-size="14" fill="#212529">Rp 1.350.000</text>
  <line x1="790" y1="600" x2="1130" y2="600" stroke="#dee2e6" stroke-width="1"/>
  
  <!-- Export Button -->
  <rect x="1050" y="640" width="100" height="30" fill="#28a745" rx="3"/>
  <text x="1100" y="660" font-family="Arial" font-size="14" fill="white" text-anchor="middle">Export PDF</text>
</svg>